<svg xmlns="http://www.w3.org/2000/svg" viewBox="0 0 989.95 989.95"><defs><style>.cls-1{fill:#fff;}</style></defs><title>Middel 1</title><g id="Laag_2" data-name="Laag 2"><g id="Laag_1-2" data-name="Laag 1"><path class="cls-1" d="M919.24,424.26l-70.71-70.71-70.71-70.71-70.71-70.71L636.4,141.42,565.69,70.71,495,0,424.26,70.71l-70.71,70.71-70.71,70.71-70.71,70.71-70.71,70.71L70.71,424.26,0,495l70.71,70.71,70.71,70.71,70.71,70.71,70.71,70.71,70.71,70.71,70.71,70.71L495,989.95l70.71-70.71,70.71-70.71,70.71-70.71,70.71-70.71,70.71-70.71,70.71-70.71L989.95,495ZM495,141.42l70.71,70.71L495,282.84l-70.71-70.71Zm0,707.11-70.71-70.71L495,707.11l70.71,70.71ZM777.82,565.69,707.11,636.4,636.4,707.11,565.69,636.4l70.71-70.71L707.11,495,636.4,424.26,565.69,495,495,565.69,424.26,495l-70.71-70.71L282.84,495l70.71,70.71,70.71,70.71-70.71,70.71L282.84,636.4l-70.71-70.71L141.42,495l70.71-70.71,70.71-70.71,70.71-70.71,70.71,70.71L495,424.26l70.71-70.71,70.71-70.71,70.71,70.71,70.71,70.71L848.53,495Z"/></g></g></svg>