<svg xmlns="http://www.w3.org/2000/svg" viewBox="0 0 1004.09 1004.09"><defs><style>.cls-1{fill:none;stroke:#fff;stroke-linecap:square;stroke-miterlimit:10;stroke-width:10px;}</style></defs><title>logo-outline</title><g id="Laag_2" data-name="Laag 2"><g id="Laag_1-2" data-name="Laag 1"><path class="cls-1" d="M926.31,431.34,855.6,360.62l-70.71-70.71L714.18,219.2l-70.71-70.71L572.76,77.78,502,7.07,431.34,77.78l-70.71,70.71L289.91,219.2,219.2,289.91l-70.71,70.71L77.78,431.34,7.07,502l70.71,70.71,70.71,70.71,70.71,70.71,70.71,70.71,70.71,70.71,70.71,70.71L502,997l70.71-70.71,70.71-70.71,70.71-70.71,70.71-70.71,70.71-70.71,70.71-70.71L997,502ZM502,148.49l70.71,70.71L502,289.91,431.34,219.2Zm0,707.11-70.71-70.71L502,714.18l70.71,70.71ZM784.89,572.76l-70.71,70.71-70.71,70.71-70.71-70.71,70.71-70.71L714.18,502l-70.71-70.71L572.76,502,502,572.76,431.34,502l-70.71-70.71L289.91,502l70.71,70.71,70.71,70.71-70.71,70.71-70.71-70.71L219.2,572.76,148.49,502l70.71-70.71,70.71-70.71,70.71-70.71,70.71,70.71L502,431.34l70.71-70.71,70.71-70.71,70.71,70.71,70.71,70.71L855.6,502Z"/></g></g></svg>